<svg width="67" height="52" viewBox="0 0 67 52" fill="none" xmlns="http://www.w3.org/2000/svg">
<path d="M51.7243 31.4254H49.0058C48.6982 32.4369 48.2642 33.3331 47.6943 34.1212C44.7636 35.2938 40.934 35.7743 36.3007 35.7743C25.1074 35.7743 18.2517 32.7781 18.2517 23.4195C18.2517 21.394 18.5689 19.6568 19.1817 18.1959C22.1958 16.7999 26.2377 16.2353 31.0832 16.2353C40.531 16.2353 46.6975 18.2296 48.455 24.0586H61.7849C61.6895 23.4507 61.5727 22.8644 61.4248 22.2902H49.0035C47.2484 16.4587 41.0794 14.4669 31.6317 14.4669C27.0938 14.4669 23.2641 14.957 20.312 16.1824C23.1258 12.3549 28.7129 10.9805 36.2983 10.9805C45.7461 10.9805 51.9127 12.9748 53.6701 18.8038H60.2611C60.7476 19.8922 61.1387 21.0528 61.4248 22.2902H62.3357C62.1354 21.0648 61.8588 19.9019 61.4892 18.8038H67C64.8634 5.5335 53.0573 0 36.2983 0C25.2648 0 16.3774 2.38832 10.9715 7.80408C10.1035 8.67868 9.32139 9.63737 8.63224 10.6705C6.42172 14.0296 5.21511 18.2488 5.21511 23.4195C5.21511 39.9959 17.7104 46.7548 36.2983 46.7548C44.561 46.7548 51.617 45.4117 56.8965 42.4587C51.4906 47.8529 42.6342 50.2292 31.6317 50.2292C13.0437 50.2292 0.550842 43.4823 0.550842 26.8962C0.550842 24.3709 0.836993 22.0787 1.39737 19.998C0.476919 22.5256 0 25.4017 0 28.6646C0 45.2507 12.4953 52 31.0832 52C43.8837 52 53.7965 48.7803 58.7064 41.3295C63.1298 38.302 66.039 33.9002 67 27.9414H53.6701C53.2576 29.3062 52.6113 30.4571 51.7243 31.4278V31.4254Z" fill="#001D31"/>
</svg>
